<svg width="526" height="101" viewBox="0 0 526 101" fill="none" xmlns="http://www.w3.org/2000/svg">
<path d="M34.1317 66.632C32.3557 67.4 30.2917 67.952 27.9397 68.288C25.5877 68.624 23.4037 68.792 21.3877 68.792C14.8597 68.792 9.74766 67.088 6.05166 63.68C2.35566 60.272 0.507656 55.04 0.507656 47.984C0.507656 40.784 2.45166 35.408 6.33966 31.856C10.2277 28.256 15.6997 26.456 22.7557 26.456C26.1157 26.456 29.6197 26.912 33.2677 27.824C33.2677 28.784 33.1717 30.224 32.9797 32.144C32.7877 34.016 32.5957 35.336 32.4037 36.104H27.8677C24.5557 36.104 21.9397 36.176 20.0197 36.32C18.1477 36.416 17.0197 36.632 16.6357 36.968C15.9157 37.64 15.3637 39.008 14.9797 41.072C14.5957 43.088 14.4037 45.032 14.4037 46.904C14.4037 50.168 14.8117 52.688 15.6277 54.464C16.4437 56.192 17.4757 57.344 18.7237 57.92C19.9237 58.496 21.9157 58.784 24.6997 58.784C26.9077 58.784 29.7877 58.592 33.3397 58.208L34.1317 66.632ZM57.9417 68L56.7897 63.464C54.5817 67.064 51.5097 68.864 47.5737 68.864C44.3577 68.864 41.7177 67.976 39.6537 66.2C37.6377 64.376 36.6297 61.832 36.6297 58.568C36.6297 56.552 37.2057 54.8 38.3577 53.312C39.5577 51.776 41.1897 50.696 43.2537 50.072C45.9417 49.304 50.0937 48.872 55.7097 48.776C55.7097 45.608 55.5657 43.928 55.2777 43.736C55.0377 43.544 54.2697 43.448 52.9737 43.448C52.1577 43.448 51.0297 43.496 49.5897 43.592C47.2857 43.688 44.1657 43.952 40.2297 44.384C39.8457 41.792 39.5577 39.008 39.3657 36.032C41.9097 35.504 44.5737 35.072 47.3577 34.736C50.1417 34.352 52.6377 34.16 54.8457 34.16C58.6857 34.16 61.5657 34.808 63.4857 36.104C65.4057 37.352 66.6537 39.008 67.2297 41.072C67.8057 43.136 68.0697 45.752 68.0217 48.92L67.9497 59.504L68.1657 68H57.9417ZM51.7497 60.8C52.9977 60.8 54.3177 60.56 55.7097 60.08V54.752H55.1337C51.5817 54.752 49.6137 54.944 49.2297 55.328C48.9897 55.568 48.7977 55.928 48.6537 56.408C48.5577 56.888 48.5097 57.344 48.5097 57.776C48.5097 58.928 48.7737 59.72 49.3017 60.152C49.8297 60.584 50.6457 60.8 51.7497 60.8ZM108.789 68H95.3969L88.5569 54.536C87.8849 53.144 86.9969 52.256 85.8929 51.872V68H73.5809V24.8L85.8929 24.296V48.848C87.0449 48.368 88.0289 47.384 88.8449 45.896L94.9649 34.88L108.429 34.808L101.445 46.04C100.341 47.816 99.1409 49.232 97.8449 50.288C98.9489 51.488 100.197 53.312 101.589 55.76L108.789 68ZM131.497 59.36C132.697 59.36 134.929 59.24 138.193 59C138.625 59 139.417 58.952 140.569 58.856L141.649 66.272C137.953 68 133.153 68.864 127.249 68.864C121.729 68.864 117.481 67.472 114.505 64.688C111.577 61.904 110.113 57.704 110.113 52.088C110.113 49.208 110.473 46.424 111.193 43.736C111.961 41.048 112.825 39.176 113.785 38.12C114.793 37.064 116.665 36.152 119.401 35.384C122.137 34.616 124.849 34.232 127.537 34.232C131.857 34.232 135.097 35 137.257 36.536C139.417 38.072 140.833 40.208 141.505 42.944C142.177 45.632 142.513 49.256 142.513 53.816C139.249 54.008 136.057 54.104 132.937 54.104H122.713C122.713 55.64 123.025 56.792 123.649 57.56C124.321 58.328 125.257 58.832 126.457 59.072C127.657 59.264 129.337 59.36 131.497 59.36ZM123.433 42.8C123.145 42.944 122.929 43.568 122.785 44.672C122.641 45.776 122.545 47.024 122.497 48.416H126.241C128.497 48.416 130.129 48.392 131.137 48.344C131.137 46.04 130.801 44.408 130.129 43.448C129.505 42.488 128.401 42.008 126.817 42.008C125.521 42.008 124.393 42.272 123.433 42.8ZM173.631 56.768C173.631 61.04 172.263 64.112 169.527 65.984C166.839 67.856 162.999 68.792 158.007 68.792C154.503 68.792 150.471 68.288 145.911 67.28C146.007 66.32 146.223 64.952 146.559 63.176C146.943 61.352 147.255 59.96 147.495 59C149.223 59.288 151.143 59.528 153.255 59.72C155.367 59.864 157.167 59.936 158.655 59.936C159.951 59.936 160.743 59.864 161.031 59.72C161.079 59.672 161.127 59.552 161.175 59.36C161.271 59.12 161.319 58.88 161.319 58.64C161.319 57.68 160.719 57.032 159.519 56.696C159.135 56.6 157.671 56.192 155.127 55.472C152.583 54.752 150.495 53.456 148.863 51.584C147.279 49.664 146.487 47.288 146.487 44.456C146.487 42.968 146.823 41.312 147.495 39.488C148.167 37.664 148.887 36.512 149.655 36.032C150.231 35.648 151.623 35.264 153.831 34.88C156.039 34.448 158.079 34.232 159.951 34.232C163.935 34.232 167.943 34.52 171.975 35.096C171.975 35.96 171.855 37.424 171.615 39.488C171.375 41.504 171.159 42.776 170.967 43.304C166.887 42.776 163.599 42.512 161.103 42.512C159.807 42.512 158.967 42.584 158.583 42.728C158.487 42.776 158.391 42.92 158.295 43.16C158.199 43.352 158.151 43.616 158.151 43.952C158.151 44.624 158.367 45.104 158.799 45.392C159.231 45.728 160.359 46.136 162.183 46.616C164.343 47.24 166.191 47.888 167.727 48.56C169.311 49.232 170.679 50.24 171.831 51.584C173.031 52.928 173.631 54.656 173.631 56.768Z" fill="#706E72"/>
<path d="M249.789 46.112C249.933 46.064 250.173 46.04 250.509 46.04C251.229 46.04 251.781 46.28 252.165 46.76C252.549 47.24 252.741 47.888 252.741 48.704C252.741 50.192 252.453 51.368 251.877 52.232C251.301 53.048 250.437 53.648 249.285 54.032C247.077 54.752 244.725 55.112 242.229 55.112C240.117 55.112 238.125 54.824 236.253 54.248C234.861 56.504 233.325 58.832 231.645 61.232C229.725 63.968 228.069 65.84 226.677 66.848C225.333 67.856 223.797 68.36 222.069 68.36C220.149 68.36 218.685 67.616 217.677 66.128C216.717 64.64 216.117 62.192 215.877 58.784L215.517 53.528C214.029 57.56 212.685 60.632 211.485 62.744C210.333 64.856 209.157 66.32 207.957 67.136C206.805 67.952 205.437 68.36 203.853 68.36C201.885 68.36 200.325 67.592 199.173 66.056C198.069 64.52 197.373 62.096 197.085 58.784C196.509 52.064 196.221 46.184 196.221 41.144V38.624C196.269 37.04 196.701 35.936 197.517 35.312C198.333 34.688 199.557 34.376 201.189 34.376C202.437 34.376 203.349 34.664 203.925 35.24C204.549 35.768 204.861 36.68 204.861 37.976C204.861 43.496 205.197 50.672 205.869 59.504C209.133 52.64 212.133 45.488 214.869 38.048C215.397 36.608 216.021 35.648 216.741 35.168C217.509 34.64 218.421 34.376 219.477 34.376C220.773 34.376 221.661 34.64 222.141 35.168C222.669 35.696 222.933 36.632 222.933 37.976C222.933 43.496 223.269 50.672 223.941 59.504C226.821 55.232 228.981 51.824 230.421 49.28C229.701 47.888 229.341 46.232 229.341 44.312C229.341 42.68 229.701 41.096 230.421 39.56C231.141 38.024 232.125 36.776 233.373 35.816C234.621 34.856 236.037 34.376 237.621 34.376C239.013 34.376 240.141 34.88 241.005 35.888C241.869 36.848 242.301 38.264 242.301 40.136C242.301 42.296 241.725 44.768 240.573 47.552C242.397 47.456 244.821 47.096 247.845 46.472L249.789 46.112ZM255.923 29.696C253.907 29.696 252.395 29.24 251.387 28.328C250.379 27.368 249.875 26.048 249.875 24.368C249.875 22.688 250.523 21.296 251.819 20.192C253.163 19.04 254.819 18.464 256.787 18.464C258.563 18.464 260.003 18.896 261.107 19.76C262.211 20.624 262.763 21.848 262.763 23.432C262.763 25.352 262.139 26.888 260.891 28.04C259.643 29.144 257.987 29.696 255.923 29.696ZM255.347 68.36C252.227 68.36 249.947 67.256 248.507 65.048C247.115 62.84 246.419 59.912 246.419 56.264C246.419 54.104 246.683 51.344 247.211 47.984C247.787 44.576 248.507 41.408 249.371 38.48C249.803 36.944 250.379 35.888 251.099 35.312C251.819 34.736 252.971 34.448 254.555 34.448C257.003 34.448 258.227 35.264 258.227 36.896C258.227 38.096 257.771 40.88 256.859 45.248C255.707 50.528 255.131 54.104 255.131 55.976C255.131 57.416 255.323 58.52 255.707 59.288C256.091 60.056 256.739 60.44 257.651 60.44C258.515 60.44 259.595 59.84 260.891 58.64C262.187 57.44 263.915 55.544 266.075 52.952C266.651 52.28 267.299 51.944 268.019 51.944C268.643 51.944 269.123 52.232 269.459 52.808C269.843 53.384 270.035 54.176 270.035 55.184C270.035 57.104 269.579 58.592 268.667 59.648C263.915 65.456 259.475 68.36 255.347 68.36ZM296.322 51.944C296.946 51.944 297.426 52.232 297.762 52.808C298.146 53.384 298.338 54.176 298.338 55.184C298.338 57.104 297.882 58.592 296.97 59.648C294.906 62.192 292.65 64.28 290.202 65.912C287.754 67.544 284.946 68.36 281.778 68.36C271.986 68.36 267.09 61.472 267.09 47.696C267.09 45.584 267.162 43.448 267.306 41.288H264.498C263.058 41.288 262.074 41.024 261.546 40.496C261.066 39.968 260.826 39.128 260.826 37.976C260.826 35.288 261.906 33.944 264.066 33.944H268.17C268.986 28.664 270.234 23.84 271.914 19.472C273.594 15.104 275.61 11.624 277.962 9.032C280.362 6.44 282.93 5.144 285.666 5.144C287.682 5.144 289.266 6.032 290.418 7.808C291.57 9.584 292.146 11.816 292.146 14.504C292.146 21.944 289.026 28.424 282.786 33.944H290.85C291.618 33.944 292.17 34.112 292.506 34.448C292.842 34.784 293.01 35.408 293.01 36.32C293.01 39.632 290.298 41.288 284.874 41.288H276.09C275.994 43.688 275.946 45.56 275.946 46.904C275.946 51.896 276.522 55.4 277.674 57.416C278.874 59.432 280.746 60.44 283.29 60.44C285.354 60.44 287.178 59.816 288.762 58.568C290.346 57.32 292.218 55.448 294.378 52.952C294.954 52.28 295.602 51.944 296.322 51.944ZM283.722 12.056C283.002 12.056 282.186 12.968 281.274 14.792C280.41 16.568 279.57 19.064 278.754 22.28C277.986 25.448 277.338 28.976 276.81 32.864C279.642 30.416 281.754 27.68 283.146 24.656C284.586 21.584 285.306 18.8 285.306 16.304C285.306 13.472 284.778 12.056 283.722 12.056ZM317.964 34.448C319.5 34.448 320.652 34.856 321.42 35.672C322.236 36.44 322.644 37.592 322.644 39.128C322.644 40.376 322.38 42.728 321.852 46.184C321.372 49.112 320.988 51.896 320.7 54.536C320.412 57.128 320.268 60.032 320.268 63.248C320.268 65.072 319.884 66.392 319.116 67.208C318.396 67.976 317.196 68.36 315.516 68.36C313.932 68.36 312.78 67.952 312.06 67.136C311.34 66.32 310.98 65.096 310.98 63.464C310.98 61.544 311.316 58.376 311.988 53.96C312.564 50.12 312.852 47.672 312.852 46.616C312.852 45.848 312.588 45.464 312.06 45.464C311.436 45.464 310.548 46.28 309.396 47.912C308.244 49.496 307.092 51.608 305.94 54.248C304.788 56.888 303.852 59.672 303.132 62.6C302.604 64.856 301.98 66.392 301.26 67.208C300.588 67.976 299.508 68.36 298.02 68.36C296.532 68.36 295.428 67.832 294.708 66.776C294.036 65.672 293.58 63.992 293.34 61.736C293.1 59.48 292.98 56.168 292.98 51.8C292.98 44.408 293.724 36.704 295.212 28.688C296.748 20.672 298.98 13.952 301.908 8.528C304.884 3.056 308.436 0.319996 312.564 0.319996C314.772 0.319996 316.548 1.28 317.892 3.2C319.284 5.072 319.98 7.52 319.98 10.544C319.98 15.392 318.564 20.432 315.732 25.664C312.9 30.848 308.292 36.92 301.908 43.88C301.764 46.376 301.692 48.944 301.692 51.584C303.276 47.504 305.028 44.192 306.948 41.648C308.916 39.056 310.836 37.208 312.708 36.104C314.628 35 316.38 34.448 317.964 34.448ZM311.052 7.448C310.188 7.448 309.228 8.696 308.172 11.192C307.116 13.64 306.084 16.976 305.076 21.2C304.116 25.376 303.324 29.936 302.7 34.88C305.676 31.376 308.124 27.56 310.044 23.432C312.012 19.304 312.996 15.56 312.996 12.2C312.996 10.664 312.828 9.488 312.492 8.672C312.156 7.856 311.676 7.448 311.052 7.448ZM407.595 52.088C408.219 52.088 408.699 52.4 409.035 53.024C409.419 53.6 409.611 54.344 409.611 55.256C409.611 56.36 409.443 57.224 409.107 57.848C408.771 58.472 408.243 59.024 407.523 59.504C404.691 61.376 400.179 64.448 393.987 68.72C392.115 78.656 389.691 86.48 386.715 92.192C383.739 97.904 379.971 100.76 375.411 100.76C372.963 100.76 370.971 99.992 369.435 98.456C367.899 96.968 367.131 95 367.131 92.552C367.131 90.296 367.635 88.016 368.643 85.712C369.651 83.408 371.523 80.744 374.259 77.72C377.043 74.696 380.955 71.24 385.995 67.352L386.211 65.984C382.419 67.568 378.699 68.36 375.051 68.36C369.675 68.36 364.947 67.328 360.867 65.264C356.787 63.152 353.619 60.176 351.363 56.336C349.107 52.496 347.979 48.032 347.979 42.944C347.979 35.84 349.323 29.576 352.011 24.152C354.699 18.68 358.395 14.456 363.099 11.48C367.851 8.456 373.155 6.944 379.011 6.944C384.627 6.944 388.827 8.264 391.611 10.904C394.443 13.496 395.859 16.952 395.859 21.272C395.859 24.104 395.331 26.384 394.275 28.112C393.267 29.792 391.803 30.632 389.883 30.632C388.587 30.632 387.531 30.32 386.715 29.696C385.947 29.072 385.563 28.208 385.563 27.104C385.563 26.624 385.659 25.808 385.851 24.656C386.139 23.312 386.283 22.256 386.283 21.488C386.283 19.472 385.659 17.912 384.411 16.808C383.211 15.704 381.171 15.152 378.291 15.152C374.787 15.152 371.523 16.16 368.499 18.176C365.523 20.192 363.123 23.216 361.299 27.248C359.475 31.232 358.563 36.032 358.563 41.648C358.563 47.408 360.123 51.872 363.243 55.04C366.411 58.16 370.971 59.72 376.923 59.72C380.235 59.72 383.691 58.976 387.291 57.488L388.299 48.704H380.955C379.611 48.704 378.579 48.392 377.859 47.768C377.139 47.096 376.779 46.016 376.779 44.528C376.779 43.184 377.139 42.128 377.859 41.36C378.579 40.592 379.539 40.208 380.739 40.208H394.203C395.259 40.208 396.123 40.568 396.795 41.288C397.515 41.96 397.803 42.944 397.659 44.24C397.515 45.776 397.035 49.256 396.219 54.68L395.427 60.152C399.267 57.272 402.771 54.776 405.939 52.664C406.563 52.28 407.115 52.088 407.595 52.088ZM376.203 93.776C377.451 93.776 378.819 92.36 380.307 89.528C381.795 86.696 383.187 82.136 384.483 75.848C380.835 78.968 378.195 81.776 376.563 84.272C374.979 86.816 374.187 89.048 374.187 90.968C374.187 92.84 374.859 93.776 376.203 93.776ZM409.525 68.36C407.701 68.36 406.405 67.4 405.637 65.48C404.917 63.56 404.557 60.488 404.557 56.264C404.557 50.024 405.445 44.096 407.221 38.48C407.653 37.088 408.349 36.08 409.309 35.456C410.317 34.784 411.709 34.448 413.485 34.448C414.445 34.448 415.117 34.568 415.501 34.808C415.885 35.048 416.077 35.504 416.077 36.176C416.077 36.944 415.717 38.672 414.997 41.36C414.517 43.28 414.133 44.96 413.845 46.4C413.557 47.84 413.317 49.616 413.125 51.728C414.709 47.6 416.485 44.24 418.453 41.648C420.421 39.056 422.341 37.208 424.213 36.104C426.133 35 427.885 34.448 429.469 34.448C432.589 34.448 434.149 36.008 434.149 39.128C434.149 39.752 433.933 41.264 433.501 43.664C433.117 45.584 432.925 46.784 432.925 47.264C432.925 48.944 433.525 49.784 434.725 49.784C436.069 49.784 437.797 48.728 439.909 46.616C440.533 45.992 441.181 45.68 441.853 45.68C442.477 45.68 442.957 45.968 443.293 46.544C443.677 47.072 443.869 47.792 443.869 48.704C443.869 50.48 443.389 51.872 442.429 52.88C441.085 54.272 439.501 55.472 437.677 56.48C435.901 57.44 434.005 57.92 431.989 57.92C429.445 57.92 427.501 57.272 426.157 55.976C424.861 54.68 424.213 52.928 424.213 50.72C424.213 50 424.285 49.28 424.429 48.56C424.525 47.6 424.573 46.952 424.573 46.616C424.573 45.848 424.309 45.464 423.781 45.464C423.061 45.464 422.101 46.28 420.901 47.912C419.749 49.496 418.597 51.608 417.445 54.248C416.293 56.888 415.357 59.672 414.637 62.6C414.109 64.856 413.485 66.392 412.765 67.208C412.093 67.976 411.013 68.36 409.525 68.36ZM446.035 68.36C443.059 68.36 440.683 67.28 438.907 65.12C437.131 62.96 436.243 60.128 436.243 56.624C436.243 52.784 437.131 49.16 438.907 45.752C440.683 42.296 443.035 39.536 445.963 37.472C448.939 35.36 452.083 34.304 455.395 34.304C456.451 34.304 457.147 34.52 457.483 34.952C457.867 35.336 458.179 36.056 458.419 37.112C459.427 36.92 460.483 36.824 461.587 36.824C463.939 36.824 465.115 37.664 465.115 39.344C465.115 40.352 464.755 42.752 464.035 46.544C462.931 52.064 462.379 55.904 462.379 58.064C462.379 58.784 462.547 59.36 462.883 59.792C463.267 60.224 463.747 60.44 464.323 60.44C465.235 60.44 466.339 59.864 467.635 58.712C468.931 57.512 470.683 55.592 472.891 52.952C473.467 52.28 474.115 51.944 474.835 51.944C475.459 51.944 475.939 52.232 476.275 52.808C476.659 53.384 476.851 54.176 476.851 55.184C476.851 57.104 476.395 58.592 475.483 59.648C473.515 62.096 471.427 64.16 469.219 65.84C467.011 67.52 464.875 68.36 462.811 68.36C461.227 68.36 459.763 67.832 458.419 66.776C457.123 65.672 456.139 64.184 455.467 62.312C452.971 66.344 449.827 68.36 446.035 68.36ZM448.627 61.088C449.683 61.088 450.691 60.464 451.651 59.216C452.611 57.968 453.307 56.312 453.739 54.248L456.403 41C454.387 41.048 452.515 41.816 450.787 43.304C449.107 44.744 447.763 46.664 446.755 49.064C445.747 51.464 445.243 54.008 445.243 56.696C445.243 58.184 445.531 59.288 446.107 60.008C446.731 60.728 447.571 61.088 448.627 61.088ZM484.751 68.36C480.047 68.36 476.375 67.04 473.735 64.4C471.143 61.712 469.847 58.184 469.847 53.816C469.847 49.928 470.615 46.52 472.151 43.592C473.687 40.664 475.679 38.408 478.127 36.824C480.575 35.24 483.143 34.448 485.831 34.448C488.471 34.448 490.511 35.24 491.951 36.824C493.439 38.36 494.183 40.352 494.183 42.8C494.183 44.816 493.727 46.52 492.815 47.912C491.951 49.304 490.799 50 489.359 50C488.447 50 487.703 49.784 487.127 49.352C486.599 48.92 486.335 48.32 486.335 47.552C486.335 47.216 486.383 46.832 486.479 46.4C486.575 45.968 486.647 45.656 486.695 45.464C486.935 44.744 487.055 44.072 487.055 43.448C487.055 42.824 486.887 42.344 486.551 42.008C486.263 41.672 485.831 41.504 485.255 41.504C484.151 41.504 483.119 42.008 482.159 43.016C481.199 43.976 480.431 45.296 479.855 46.976C479.279 48.656 478.991 50.504 478.991 52.52C478.991 58.088 481.415 60.872 486.263 60.872C488.231 60.872 490.343 60.224 492.599 58.928C494.903 57.584 497.159 55.592 499.367 52.952C499.943 52.28 500.591 51.944 501.311 51.944C501.935 51.944 502.415 52.232 502.751 52.808C503.135 53.384 503.327 54.176 503.327 55.184C503.327 57.008 502.871 58.496 501.959 59.648C499.703 62.432 496.991 64.592 493.823 66.128C490.703 67.616 487.679 68.36 484.751 68.36ZM523.283 54.104C523.907 54.104 524.387 54.392 524.723 54.968C525.107 55.544 525.299 56.336 525.299 57.344C525.299 59.072 524.891 60.56 524.075 61.808C522.731 63.872 520.955 65.48 518.747 66.632C516.587 67.784 513.995 68.36 510.971 68.36C506.363 68.36 502.787 66.992 500.243 64.256C497.699 61.472 496.427 57.728 496.427 53.024C496.427 49.712 497.123 46.64 498.515 43.808C499.907 40.928 501.827 38.648 504.275 36.968C506.771 35.288 509.579 34.448 512.699 34.448C515.483 34.448 517.715 35.288 519.395 36.968C521.075 38.6 521.915 40.832 521.915 43.664C521.915 46.976 520.715 49.832 518.315 52.232C515.963 54.584 511.931 56.456 506.219 57.848C507.371 60.056 509.315 61.16 512.051 61.16C514.019 61.16 515.627 60.704 516.875 59.792C518.171 58.88 519.659 57.344 521.339 55.184C521.915 54.464 522.563 54.104 523.283 54.104ZM511.475 41.504C509.699 41.504 508.187 42.536 506.939 44.6C505.739 46.664 505.139 49.16 505.139 52.088V52.232C507.971 51.56 510.203 50.552 511.835 49.208C513.467 47.864 514.283 46.304 514.283 44.528C514.283 43.616 514.019 42.896 513.491 42.368C513.011 41.792 512.339 41.504 511.475 41.504Z" fill="#4C4A4F"/>
</svg>
